# Blender 3.6.2
# www.blender.org
mtllib aladerecha.mtl
g ALADER_Mesh
v 0.188302 0.007852 -0.100095
v 0.216661 0.009113 -0.105692
v 0.216813 0.007731 -0.105692
v 0.188454 0.006469 -0.100095
v 0.161264 0.006649 -0.092455
v 0.161751 0.006671 -0.092619
v 0.161903 0.005288 -0.092619
v 0.161416 0.005266 -0.092455
v 0.137621 0.005597 -0.084464
v 0.137773 0.004214 -0.084464
v 0.091667 0.003553 -0.064958
v 0.115347 0.004606 -0.074549
v 0.115500 0.003224 -0.074549
v 0.091819 0.002170 -0.064958
v 0.074090 0.002771 -0.056082
v 0.074241 0.001388 -0.056082
v 0.056321 0.000591 -0.044518
v 0.056170 0.001973 -0.044518
v 0.039537 -0.000156 -0.033286
v 0.039385 0.001227 -0.033286
v 0.001886 -0.000099 -0.001650
v 0.004666 0.000025 -0.012387
v 0.004818 -0.001358 -0.012387
v 0.002038 -0.001481 -0.001650
v 0.001573 -0.002005 0.010068
v 0.001410 -0.000673 0.010198
v 0.279739 0.010530 -0.089605
v 0.270567 0.010122 -0.098218
v 0.270416 0.011505 -0.098218
v 0.239888 0.010147 -0.107043
v 0.240040 0.008764 -0.107043
v 0.260704 0.011073 -0.104437
v 0.260856 0.009690 -0.104437
v 0.016782 -0.001168 0.031517
v 0.040097 -0.000131 0.037624
v 0.030076 -0.000577 0.065770
v 0.021026 -0.000979 0.051875
v 0.039945 0.001252 0.037624
v 0.040407 -0.000117 0.076962
v 0.039880 -0.000141 0.010186
v 0.039728 0.001242 0.010186
v 0.093159 0.002230 0.008127
v 0.093006 0.003612 0.008127
v 0.093958 0.002265 0.051733
v 0.093806 0.003648 0.051733
v 0.058131 0.000671 0.096164
v 0.096142 0.002362 0.130900
v 0.161721 0.005280 0.005478
v 0.161569 0.006662 0.005478
v 0.161920 0.005289 0.069536
v 0.161768 0.006671 0.069536
v 0.107003 0.002846 0.132637
v 0.130533 0.003892 0.131769
v 0.162070 0.005295 0.117609
v 0.217414 0.007758 0.016271
v 0.218320 0.007798 0.034507
v 0.213795 0.007597 0.003245
v 0.210175 0.007436 0.062296
v 0.199360 0.006954 0.079344
v 0.178499 0.006026 0.104848
v 0.218555 0.007808 -0.074915
v 0.218403 0.009191 -0.074915
v 0.280766 0.010576 -0.074912
v 0.275336 0.010334 -0.058412
v 0.250900 0.009247 -0.037570
v 0.229682 0.008303 -0.017098
v 0.039704 -0.000148 -0.012183
v 0.039552 0.001234 -0.012183
v 0.092447 0.002198 -0.030683
v 0.092295 0.003581 -0.030683
v 0.161533 0.005272 -0.054915
v 0.161382 0.006654 -0.054915
vn -0.6990 -0.0682 0.7118
vn -0.5755 -0.0671 0.8150
vn 0.0444 -0.9990 -0.0000
vn -0.0495 0.9987 0.0109
vn -0.0745 0.9971 0.0141
vn -0.0444 0.9990 -0.0000
vn -0.3824 -0.0396 0.9232
vn -0.0512 0.9986 0.0097
vn -0.7866 -0.1072 0.6081
vn -0.9056 -0.1075 0.4102
vn 0.0487 -0.9985 -0.0243
vn 0.0434 -0.9991 -0.0016
vn -0.7646 -0.0942 0.6376
vn -0.0498 0.9974 0.0513
vn 0.9972 0.0529 0.0533
vn 0.9781 0.0542 -0.2008
vn -0.0305 0.9994 0.0134
vn 0.9270 0.0424 0.3726
vn 0.9922 0.0478 0.1150
vn 0.1574 -0.0043 0.9875
vn 0.4808 0.0121 0.8768
vn -0.0312 0.9995 -0.0000
vn -0.0950 -0.0204 0.9953
vn -0.2103 -0.7892 -0.5770
vn -0.2849 0.7540 -0.5919
vn -0.1992 -0.7749 -0.5998
vn -0.3052 0.7407 -0.5985
vn -0.2297 -0.7790 -0.5835
vn -0.3613 0.7361 -0.5724
vn -0.2730 0.7411 -0.6134
vn -0.3088 -0.7939 -0.5238
vn -0.3896 0.7444 -0.5423
vn -0.2982 -0.7997 -0.5211
vn -0.2827 -0.7821 -0.5553
vn -0.2267 0.7477 -0.6241
vn -0.1548 -0.7750 -0.6126
vn -0.2407 0.7525 -0.6131
vn -0.1682 -0.7816 -0.6006
vn -0.1174 0.7450 -0.6566
vn -0.0483 -0.7570 -0.6517
vn -0.1863 0.7469 -0.6383
vn -0.1157 -0.7686 -0.6292
vn -0.3754 0.7513 -0.5427
vn 0.3715 0.7955 -0.4787
vn 0.4432 -0.7254 -0.5266
vn 0.1954 0.7402 -0.6434
vn 0.2696 -0.7063 -0.6546
vn 0.0564 -0.7443 -0.6654
vn -0.0124 0.7475 -0.6641
vn -0.2160 -0.8855 -0.4114
vn -0.2765 0.8703 -0.4075
vn 0.9723 -0.0563 -0.2269
vn -0.0396 0.9992 0.0038
vn -0.0397 0.9992 0.0001
vn 0.0397 -0.9992 -0.0001
vn 0.6434 0.0287 0.7650
vn -0.0368 0.9992 0.0125
vn 0.8571 0.0263 0.5145
vn 0.8166 0.0301 0.5764
vn 0.6788 0.0224 0.7340
vn 0.0410 -0.9990 -0.0196
vn -0.0415 0.9989 0.0212
vn 0.6723 0.0267 0.7398
vn 0.8468 0.0444 0.5301
vt 0.630493 0.874195
vt 0.593261 0.821293
vt 0.681747 0.691853
vt 0.397848 0.800639
vt 0.369380 0.863298
vt 0.320070 0.691724
vt 0.581391 0.684801
vt 0.667795 0.541028
vt 0.402208 0.659750
vt 0.325539 0.535790
vt 0.708498 0.965209
vt 0.308956 0.974596
vt 0.405263 0.561545
vt 0.437789 0.646055
vt 0.429394 0.717483
vt 0.537939 0.681735
vt 0.504557 0.619021
vt 0.573130 0.589600
vt 0.414448 0.764117
vt 0.551379 0.749199
vt 0.462769 0.574753
vt 0.789476 0.478532
vt 0.898924 0.534758
vt 0.808350 0.700600
vt 0.892005 0.472163
vt 0.216417 0.732055
vt 0.135132 0.587197
vt 0.138265 0.522175
vt 0.892452 0.637622
vt 0.144637 0.689547
vt 0.881752 0.429786
vt 0.144961 0.476751
vt 0.257290 0.965836
vt 0.211376 0.904245
vt 0.222970 0.502691
vt 0.728417 0.962749
vt 0.292497 0.977069
vt 0.822528 0.867439
vt 0.770236 0.941322
vt 0.245403 0.008320
vt 0.245810 0.001926
vt 0.282349 0.008379
vt 0.206530 0.001864
vt 0.206122 0.008257
vt 0.177375 0.001817
vt 0.282756 0.001985
vt 0.147243 0.008164
vt 0.147650 0.001770
vt 0.119402 0.008119
vt 0.176968 0.008211
vt 0.322781 0.002049
vt 0.322374 0.008443
vt 0.321974 0.002048
vt 0.321566 0.008442
vt 0.854048 0.051377
vt 0.854957 0.056585
vt 0.806399 0.090277
vt 0.807634 0.095413
vt 0.761086 0.133770
vt 0.762435 0.138877
vt 0.119810 0.001726
vt 0.947938 0.035818
vt 0.946694 0.041130
vt 0.928759 0.025096
vt 0.928218 0.030891
vt 0.893488 0.035590
vt 0.893090 0.030099
vt 0.571563 0.790443
vt 0.061976 0.006450
vt 0.062383 0.000056
vt 0.965889 0.058493
vt 0.771765 0.270185
vt 0.655423 0.406809
vt 0.229149 0.286414
vt 0.330400 0.397010
vt 0.644628 0.288152
vt 0.684262 0.236868
vt 0.334564 0.217166
vt 0.334692 0.274443
vt 0.721371 0.185460
vt 0.302125 0.173976
vt 0.360187 0.312292
vt 0.385933 0.359887
vt 0.410013 0.405894
vt 0.407707 0.481443
vt 0.566412 0.511980
vt 0.586909 0.386662
vt 0.560088 0.438740
vt 0.615686 0.332586
vt 0.904022 0.346741
vt 0.123127 0.398396
vt 0.866992 0.159619
vt 0.145591 0.195060
vt 0.121705 0.036192
vt 0.198138 0.051282
vt 0.267446 0.137211
vt 0.761609 0.139809
vt 0.322168 0.002048
vt 0.266754 0.136456
vt 0.055525 0.025450
vt 0.087002 0.023319
vt 0.040347 0.044365
vt 0.022633 0.124471
vt 0.025478 0.072142
vt 0.974455 0.106484
vt 0.878085 0.705296
vt 0.159189 0.754339
vt 0.848200 0.810242
vt 0.803906 0.810242
vt 0.833791 0.705296
vt 0.878273 0.799387
vt 0.187985 0.852876
vt 0.460019 0.492668
vt 0.502092 0.577840
vt 0.503994 0.538355
vt 0.463146 0.532080
vt 0.934976 0.258795
vt 0.970669 0.166838
vt 0.093307 0.317745
vt 0.029170 0.185446
s 1
g off
g ALADER_Material.001
usemtl Material.001
f 46/1/1 39/2/2 44/3/3
f 39/4/2 46/5/1 45/6/4
f 44/3/3 35/7/3 42/8/3
f 38/9/5 45/6/4 43/10/6
f 35/7/3 44/3/3 39/2/2
f 45/6/4 38/9/5 39/4/2
f 47/11/7 46/1/1 44/3/3
f 46/5/1 47/12/7 45/6/4
f 43/10/6 41/13/8 38/9/5
f 38/9/5 34/14/9 37/15/10
f 34/16/9 25/17/11 40/18/12
f 36/19/13 39/4/2 38/9/5
f 34/16/9 35/7/3 37/20/10
f 34/14/9 38/9/5 41/13/8
f 40/18/12 42/8/3 35/7/3
f 26/21/14 34/14/9 41/13/8
f 35/7/3 34/16/9 40/18/12
f 44/3/3 42/8/3 48/22/3
f 56/23/15 50/24/3 55/25/16
f 51/26/17 56/27/15 55/28/16
f 44/3/3 50/24/3 47/11/7
f 51/26/17 45/6/4 47/12/7
f 58/29/18 50/24/3 56/23/15
f 51/26/17 58/30/18 56/27/15
f 57/31/19 55/25/16 50/24/3
f 55/28/16 57/32/19 51/26/17
f 53/33/20 54/34/21 51/26/17
f 45/6/4 51/26/17 49/35/22
f 52/36/23 47/11/7 50/24/3
f 43/10/6 45/6/4 49/35/22
f 50/24/3 44/3/3 48/22/3
f 52/37/23 53/33/20 51/26/17
f 54/38/21 53/39/20 50/24/3
f 47/12/7 52/37/23 51/26/17
f 53/39/20 52/36/23 50/24/3
f 13/40/24 12/41/25 10/42/26
f 11/43/27 14/44/28 15/45/29
f 14/44/28 11/43/27 13/40/24
f 9/46/30 10/42/26 12/41/25
f 17/47/31 18/48/32 15/45/29
f 17/47/31 19/49/33 18/48/32
f 16/50/34 15/45/29 14/44/28
f 16/50/34 17/47/31 15/45/29
f 12/41/25 13/40/24 11/43/27
f 6/51/35 7/52/36 5/53/37
f 8/54/38 5/53/37 7/52/36
f 2/55/39 3/56/40 1/57/41
f 4/58/42 1/57/41 3/56/40
f 5/53/37 8/54/38 9/46/30
f 10/42/26 9/46/30 8/54/38
f 1/57/41 4/58/42 6/59/35
f 7/60/36 6/59/35 4/58/42
f 19/49/33 20/61/43 18/48/32
f 29/62/44 28/63/45 32/64/46
f 33/65/47 32/64/46 28/63/45
f 33/65/47 31/66/48 32/64/46
f 31/66/48 30/67/49 32/64/46
f 37/15/10 36/19/13 38/9/5
f 39/2/2 36/68/13 35/7/3
f 36/68/13 37/20/10 35/7/3
f 3/56/40 2/55/39 30/67/49
f 19/49/33 23/69/50 20/61/43
f 23/69/50 22/70/51 20/61/43
f 28/63/45 29/62/44 27/71/52
f 31/66/48 3/56/40 30/67/49
f 71/72/3 48/22/3 69/73/3
f 49/35/22 72/74/53 70/75/6
f 42/8/3 69/73/3 48/22/3
f 70/75/6 43/10/6 49/35/22
f 14/76/28 13/77/24 71/72/3
f 12/78/25 11/79/27 72/74/53
f 13/77/24 10/80/26 71/72/3
f 9/81/30 12/78/25 72/74/53
f 70/75/6 11/79/27 15/82/29
f 18/83/32 20/84/43 68/85/54
f 69/73/3 67/86/55 17/87/31
f 68/85/54 41/13/8 43/10/6
f 19/88/33 17/87/31 67/86/55
f 70/75/6 15/82/29 18/83/32
f 14/76/28 69/73/3 16/89/34
f 68/85/54 70/75/6 18/83/32
f 16/89/34 69/73/3 17/87/31
f 69/73/3 14/76/28 71/72/3
f 57/31/19 71/72/3 66/90/56
f 72/74/53 57/32/19 66/91/56
f 3/56/40 61/92/3 4/58/42
f 62/93/57 2/94/39 1/95/41
f 61/92/3 66/90/56 71/72/3
f 66/91/56 62/93/57 72/74/53
f 48/22/3 71/72/3 57/31/19
f 72/74/53 49/35/22 57/32/19
f 72/74/53 62/93/57 1/95/41
f 72/74/53 5/96/37 9/81/30
f 7/60/36 4/58/42 71/72/3
f 11/79/27 70/75/6 72/74/53
f 8/97/38 71/72/3 10/80/26
f 6/51/35 5/53/37 72/98/53
f 61/92/3 71/72/3 4/58/42
f 1/95/41 6/99/35 72/74/53
f 8/97/38 7/60/36 71/72/3
f 32/100/46 30/101/49 62/93/57
f 3/56/40 31/66/48 61/92/3
f 29/102/44 32/100/46 62/93/57
f 31/66/48 33/65/47 61/92/3
f 63/103/58 27/104/52 29/102/44
f 61/92/3 28/63/45 63/105/58
f 30/101/49 2/94/39 62/93/57
f 27/71/52 63/105/58 28/63/45
f 33/65/47 28/63/45 61/92/3
f 48/22/3 57/31/19 50/24/3
f 57/32/19 49/35/22 51/26/17
f 59/106/59 50/24/3 58/29/18
f 51/26/17 59/107/59 58/30/18
f 59/106/59 60/108/60 50/24/3
f 60/109/60 59/110/59 51/111/17
f 60/108/60 54/38/21 50/24/3
f 54/34/21 60/112/60 51/26/17
f 29/102/44 62/93/57 63/103/58
f 20/84/43 22/113/51 68/85/54
f 24/114/61 23/115/50 67/86/55
f 21/116/62 26/21/14 41/13/8
f 23/115/50 19/88/33 67/86/55
f 70/75/6 68/85/54 43/10/6
f 40/18/12 67/86/55 42/8/3
f 22/113/51 21/116/62 68/85/54
f 67/86/55 69/73/3 42/8/3
f 25/17/11 24/114/61 40/18/12
f 65/117/63 61/92/3 64/118/64
f 62/93/57 65/119/63 64/120/64
f 64/118/64 61/92/3 63/105/58
f 62/93/57 64/120/64 63/103/58
f 24/114/61 67/86/55 40/18/12
f 68/85/54 21/116/62 41/13/8
f 66/90/56 61/92/3 65/117/63
f 62/93/57 66/91/56 65/119/63
