# Blender 3.6.2
# www.blender.org
mtllib alaizquierda.mtl
g ALAIZQ_Mesh
v -0.030675 0.000413 0.063591
v -0.021625 0.000010 0.049697
v -0.017381 -0.000179 0.029338
v -0.058730 0.001661 0.093985
v -0.040696 0.000858 0.035446
v -0.041006 0.000872 0.074784
v -0.107602 0.003835 0.130458
v -0.131132 0.004882 0.129590
v -0.094557 0.003255 0.049555
v -0.096741 0.003352 0.128721
v -0.218013 0.008747 0.014092
v -0.218919 0.008787 0.032328
v -0.210773 0.008425 0.060117
v -0.162669 0.006285 0.115430
v -0.199959 0.007944 0.077165
v -0.179098 0.007016 0.102669
v -0.162519 0.006278 0.067358
v -0.261455 0.010679 -0.106616
v -0.240639 0.009753 -0.109221
v -0.280338 0.011520 -0.091783
v -0.271166 0.011112 -0.100397
v -0.281365 0.011565 -0.077091
v -0.275935 0.011324 -0.060591
v -0.251499 0.010237 -0.039749
v -0.002172 -0.001016 0.007890
v -0.002637 -0.000492 -0.003829
v -0.005417 -0.000368 -0.014565
v -0.040479 0.000849 0.008007
v -0.040136 0.000833 -0.035465
v -0.040303 0.000841 -0.014362
v -0.056920 0.001580 -0.046696
v -0.074840 0.002377 -0.058260
v -0.093757 0.003219 0.005949
v -0.116098 0.004213 -0.076728
v -0.093046 0.003187 -0.032862
v -0.092417 0.003159 -0.067137
v -0.138372 0.005204 -0.086643
v -0.162015 0.006256 -0.094633
v -0.162502 0.006277 -0.094798
v -0.217412 0.008720 -0.107871
v -0.189053 0.007459 -0.102274
v -0.162320 0.006269 0.003299
v -0.214394 0.008586 0.001066
v -0.219154 0.008798 -0.077094
v -0.230281 0.009293 -0.019277
v -0.162132 0.006261 -0.057094
v -0.040544 0.002241 0.035446
v -0.094405 0.004637 0.049555
v -0.162367 0.007661 0.067358
v -0.261303 0.012062 -0.106616
v -0.240487 0.011136 -0.109221
v -0.271014 0.012494 -0.100397
v -0.002009 0.000316 0.008019
v -0.002485 0.000890 -0.003829
v -0.005265 0.001014 -0.014565
v -0.040327 0.002231 0.008007
v -0.039984 0.002216 -0.035465
v -0.040151 0.002223 -0.014362
v -0.056768 0.002963 -0.046696
v -0.074688 0.003760 -0.058260
v -0.093605 0.004601 0.005949
v -0.115946 0.005595 -0.076728
v -0.092894 0.004570 -0.032862
v -0.092266 0.004542 -0.067137
v -0.138220 0.006586 -0.086643
v -0.161863 0.007638 -0.094633
v -0.162350 0.007660 -0.094798
v -0.217260 0.010103 -0.107871
v -0.188901 0.008841 -0.102274
v -0.162168 0.007652 0.003299
v -0.219002 0.010180 -0.077094
v -0.161981 0.007643 -0.057094
vn -0.6434 0.0287 0.7650
vn 0.0368 0.9992 0.0125
vn -0.6723 0.0267 0.7398
vn -0.0444 -0.9990 -0.0000
vn 0.0415 0.9989 0.0212
vn 0.0397 0.9992 0.0001
vn 0.0512 0.9986 0.0097
vn -0.0397 -0.9992 -0.0001
vn -0.0410 -0.9990 -0.0196
vn -0.0434 -0.9991 -0.0016
vn -0.8468 0.0444 0.5301
vn -0.8571 0.0263 0.5145
vn -0.0487 -0.9985 -0.0243
vn 0.2765 0.8703 -0.4075
vn 0.0444 0.9990 -0.0000
vn 0.2982 -0.7997 -0.5211
vn 0.2160 -0.8855 -0.4114
vn 0.0498 0.9974 0.0513
vn 0.3754 0.7513 -0.5427
vn -0.3715 0.7955 -0.4787
vn -0.6788 0.0224 0.7340
vn -0.4808 0.0121 0.8768
vn 0.0305 0.9994 0.0134
vn -0.8166 0.0301 0.5764
vn -0.9270 0.0424 0.3726
vn 0.0312 0.9995 -0.0000
vn -0.9922 0.0478 0.1150
vn -0.4432 -0.7254 -0.5266
vn -0.2696 -0.7063 -0.6546
vn -0.9723 -0.0563 -0.2269
vn 0.1174 0.7450 -0.6566
vn 0.0124 0.7475 -0.6641
vn -0.0564 -0.7443 -0.6654
vn -0.1954 0.7402 -0.6434
vn 0.0483 -0.7569 -0.6517
vn 0.0660 -0.9227 -0.3799
vn 0.0791 -0.9310 -0.3564
vn 0.1458 0.9163 -0.3731
vn 0.1863 0.7469 -0.6383
vn 0.0396 0.9992 0.0038
vn 0.1157 -0.7686 -0.6292
vn 0.1667 0.9128 -0.3729
vn 0.1992 -0.7750 -0.5998
vn 0.3052 0.7407 -0.5985
vn 0.2731 0.7410 -0.6134
vn 0.2297 -0.7790 -0.5835
vn 0.2827 -0.7821 -0.5553
vn 0.3088 -0.7939 -0.5238
vn 0.3896 0.7444 -0.5423
vn 0.3613 0.7361 -0.5724
vn 0.2848 0.7540 -0.5918
vn 0.2103 -0.7892 -0.5770
vn 0.9056 -0.1075 0.4102
vn 0.7646 -0.0942 0.6376
vn 0.5755 -0.0671 0.8150
vn 0.0745 0.9971 0.0141
vn 0.0950 -0.0204 0.9953
vn -0.1575 -0.0043 0.9875
vn 0.3824 -0.0397 0.9232
vn 0.0495 0.9987 0.0109
vn -0.9781 0.0542 -0.2008
vn -0.9972 0.0529 0.0533
vn 0.7866 -0.1072 0.6081
vn 0.6990 -0.0682 0.7118
vt 0.884817 0.386362
vt 0.860134 0.170385
vt 0.913386 0.301924
vt 0.168316 0.167089
vt 0.122200 0.339645
vt 0.093500 0.255668
vt 0.550582 0.512914
vt 0.604818 0.461901
vt 0.607996 0.546673
vt 0.459858 0.526481
vt 0.522527 0.593642
vt 0.449527 0.597025
vt 0.986087 0.214775
vt 0.991803 0.150223
vt 0.059217 0.167585
vt 0.056985 0.110512
vt 0.518169 0.631178
vt 0.373749 0.420570
vt 0.355094 0.542548
vt 0.553293 0.471398
vt 0.680289 0.376173
vt 0.686426 0.523026
vt 0.469599 0.459930
vt 0.522355 0.557206
vt 0.551361 0.558037
vt 0.601825 0.381948
vt 0.971586 0.068702
vt 0.849921 0.864250
vt 0.827328 0.917537
vt 0.796057 0.735264
vt 0.182648 0.826393
vt 0.158970 0.771246
vt 0.204493 0.674607
vt 0.877391 0.761312
vt 0.133080 0.671818
vt 0.891122 0.693427
vt 0.121381 0.608183
vt 0.787301 0.492572
vt 0.864085 0.468372
vt 0.141433 0.418294
vt 0.233616 0.472427
vt 0.085818 0.046148
vt 0.106021 0.035337
vt 0.065492 0.065021
vt 0.853506 0.054810
vt 0.926856 0.042910
vt 0.986951 0.094383
vt 0.144457 0.046047
vt 0.957754 0.046626
vt 0.185415 0.071458
vt 0.277698 0.162854
vt 0.278493 0.163817
vt 0.261103 0.282092
vt 0.774247 0.121072
vt 0.812427 0.084468
vt 0.778944 0.264029
vt 0.233628 0.114981
vt 0.773552 0.121847
vt 0.316222 0.211217
vt 0.674912 0.246514
vt 0.740384 0.160635
vt 0.390179 0.312834
vt 0.417674 0.356675
vt 0.444580 0.409332
vt 0.625154 0.334418
vt 0.650113 0.285312
vt 0.708567 0.203163
vt 0.351962 0.261157
vt 0.040401 0.107678
vt 0.044681 0.067950
vt 0.050633 0.070265
vt 0.973166 0.064016
vt 0.063042 0.126357
vt 0.062173 0.120022
vt 0.120659 0.123129
vt 0.002812 0.470782
vt 0.007734 0.410892
vt 0.013685 0.413206
vt 0.046353 0.109993
vt 0.464591 0.745774
vt 0.442163 0.781536
vt 0.436843 0.683552
vt 0.418652 0.807604
vt 0.556581 0.760395
vt 0.541378 0.710424
vt 0.611953 0.650613
vt 0.054469 0.034662
vt 0.934143 0.002021
vt 0.959193 0.041664
vt 0.016779 0.384499
vt 0.279404 0.158404
vt 0.235335 0.110530
vt 0.318171 0.207135
vt 0.280373 0.159646
vt 0.041127 0.158498
vt 0.035175 0.156183
vt 0.353989 0.257084
vt 0.392168 0.308770
vt 0.010827 0.382183
vt 0.014129 0.351533
vt 0.020081 0.353847
vt 0.017368 0.321470
vt 0.023320 0.323784
vt 0.274473 0.923546
vt 0.232745 0.899583
vt 0.747947 0.990964
vt 0.652927 0.987625
vt 0.782598 0.980637
vt 0.334115 0.679617
vt 0.649045 0.688076
vt 0.294692 0.927849
vt 0.895756 0.516699
vt 0.129101 0.456192
vt 0.899495 0.585597
vt 0.119287 0.513008
vt 0.481311 0.685253
vt 0.576700 0.634537
vt 0.573319 0.799750
vt 0.602030 0.867263
vt 0.378316 0.852322
s 1
g off
g ALAIZQ_Material.001
usemtl Material.001
f 45/1/1 71/2/2 24/3/3
f 44/4/4 45/5/1 24/6/3
f 54/7/5 58/8/6 56/9/7
f 30/10/8 26/11/9 28/12/10
f 23/13/11 71/2/2 22/14/12
f 44/4/4 23/15/11 22/16/12
f 24/3/3 71/2/2 23/13/11
f 44/4/4 24/6/3 23/15/11
f 26/11/9 25/17/13 28/12/10
f 35/18/4 30/10/8 33/19/4
f 54/7/5 55/20/14 58/8/6
f 30/10/8 28/12/10 33/19/4
f 58/8/6 63/21/15 61/22/15
f 29/23/16 27/24/17 30/10/8
f 53/25/18 54/7/5 56/9/7
f 27/24/17 26/11/9 30/10/8
f 55/20/14 57/26/19 58/8/6
f 71/2/2 52/27/20 22/14/12
f 16/28/21 14/29/22 49/30/23
f 14/31/22 16/32/21 17/33/4
f 15/34/24 16/28/21 49/30/23
f 16/32/21 15/35/24 17/33/4
f 15/34/24 49/30/23 13/36/25
f 17/33/4 15/35/24 13/37/25
f 70/38/26 43/39/27 49/30/23
f 43/40/27 42/41/4 17/33/4
f 21/42/28 18/43/29 44/4/4
f 22/16/12 20/44/30 21/42/28
f 68/45/31 51/46/32 71/2/2
f 21/42/28 44/4/4 22/16/12
f 20/47/30 22/14/12 52/27/20
f 18/43/29 19/48/33 44/4/4
f 50/49/34 52/27/20 71/2/2
f 19/48/33 40/50/35 44/4/4
f 51/46/32 50/49/34 71/2/2
f 39/51/36 38/52/37 46/53/4
f 67/54/38 69/55/39 72/56/40
f 46/53/4 44/4/4 41/57/41
f 66/58/42 67/54/38 72/56/40
f 46/53/4 38/52/37 37/59/43
f 63/21/15 64/60/44 72/56/40
f 41/57/41 39/51/36 46/53/4
f 66/58/42 72/56/40 65/61/45
f 71/2/2 72/56/40 69/55/39
f 70/38/26 72/56/40 43/39/27
f 46/53/4 42/41/4 43/40/27
f 71/2/2 45/1/1 72/56/40
f 45/5/1 44/4/4 46/53/4
f 68/45/31 71/2/2 69/55/39
f 44/4/4 40/50/35 41/57/41
f 43/39/27 72/56/40 45/1/1
f 46/53/4 43/40/27 45/5/1
f 36/62/46 35/18/4 46/53/4
f 35/18/4 32/63/47 31/64/48
f 63/21/15 58/8/6 59/65/49
f 35/18/4 36/62/46 32/63/47
f 60/66/50 63/21/15 59/65/49
f 31/64/48 29/23/16 30/10/8
f 56/9/7 58/8/6 61/22/15
f 30/10/8 35/18/4 31/64/48
f 57/26/19 59/65/49 58/8/6
f 64/60/44 63/21/15 60/66/50
f 62/67/51 65/61/45 72/56/40
f 37/59/43 34/68/52 46/53/4
f 64/60/44 62/67/51 72/56/40
f 34/68/52 36/62/46 46/53/4
f 61/22/15 63/21/15 70/38/26
f 35/18/4 33/19/4 42/41/4
f 72/56/40 70/38/26 63/21/15
f 42/41/4 46/53/4 35/18/4
f 40/69/35 19/70/33 51/71/32
f 52/27/20 21/72/28 20/47/30
f 55/73/14 27/74/17 57/75/19
f 27/76/17 29/77/16 57/78/19
f 68/79/31 40/69/35 51/71/32
f 2/80/53 1/81/54 5/82/4
f 1/81/54 6/83/55 5/82/4
f 1/84/54 2/85/53 47/86/56
f 51/71/32 19/70/33 50/87/34
f 19/88/33 18/89/29 50/49/34
f 50/49/34 18/89/29 21/72/28
f 21/72/28 52/27/20 50/49/34
f 57/78/19 29/77/16 59/90/49
f 67/91/38 39/51/36 41/57/41
f 41/57/41 69/92/39 67/91/38
f 65/93/45 37/59/43 38/52/37
f 38/52/37 66/94/42 65/93/45
f 69/95/39 41/96/41 40/69/35
f 40/69/35 68/79/31 69/95/39
f 34/68/52 62/97/51 64/98/44
f 31/99/48 32/100/47 60/101/50
f 60/101/50 32/100/47 36/102/46
f 29/77/16 31/99/48 59/90/49
f 59/90/49 31/99/48 60/101/50
f 37/59/43 65/93/45 62/97/51
f 64/98/44 36/62/46 34/68/52
f 36/102/46 64/103/44 60/101/50
f 62/97/51 34/68/52 37/59/43
f 7/104/57 8/105/58 17/33/4
f 7/106/57 10/107/59 49/30/23
f 8/105/58 14/31/22 17/33/4
f 8/108/58 7/106/57 49/30/23
f 9/109/4 17/33/4 42/41/4
f 48/110/60 61/22/15 70/38/26
f 10/111/59 7/104/57 17/33/4
f 49/30/23 48/110/60 70/38/26
f 14/29/22 8/108/58 49/30/23
f 43/39/27 11/112/61 49/30/23
f 11/113/61 43/40/27 17/33/4
f 13/36/25 49/30/23 12/114/62
f 17/33/4 13/37/25 12/115/62
f 48/110/60 49/30/23 10/107/59
f 17/33/4 9/109/4 10/111/59
f 12/114/62 49/30/23 11/112/61
f 17/33/4 12/115/62 11/113/61
f 33/19/4 9/109/4 42/41/4
f 3/116/63 5/82/4 28/12/10
f 3/117/63 53/25/18 56/9/7
f 33/19/4 28/12/10 5/82/4
f 47/86/56 3/117/63 56/9/7
f 5/82/4 3/116/63 2/80/53
f 6/118/55 1/84/54 47/86/56
f 25/17/13 3/116/63 28/12/10
f 3/117/63 47/86/56 2/85/53
f 56/9/7 61/22/15 47/86/56
f 10/107/59 4/119/64 48/110/60
f 4/120/64 10/111/59 9/109/4
f 47/86/56 48/110/60 6/118/55
f 9/109/4 5/82/4 6/83/55
f 48/110/60 47/86/56 61/22/15
f 5/82/4 9/109/4 33/19/4
f 4/119/64 6/118/55 48/110/60
f 6/83/55 4/120/64 9/109/4
